<?xml version="1.0" encoding="utf-8"?>
<!-- Generator: Adobe Illustrator 26.2.1, SVG Export Plug-In . SVG Version: 6.00 Build 0)  -->
<svg version="1.1" id="bg_hero_cornerblock" xmlns="http://www.w3.org/2000/svg" xmlns:xlink="http://www.w3.org/1999/xlink"
	 x="0px" y="0px" viewBox="0 0 295.1 259" style="enable-background:new 0 0 295.1 259;" xml:space="preserve">
<style type="text/css">
	.st0{fill-rule:evenodd;clip-rule:evenodd;fill:#FCFBF9;}
	.st1{fill-rule:evenodd;clip-rule:evenodd;fill:#98A190;}
</style>
<path class="st0" d="M-189,259h409c-39.6-65.5-97.8-126.1-174.9-173.5C-21.4,44.7-102.3,14.2-189,0V259z"/>
<path class="st1" d="M262.2,214.1c20.3,13.3,29.1,39.1,30.5,62.2c1.9,31.8-8.2,63-7.3,94.9c0.1,5,0.6,10,1.4,14.9h2.3
	c-0.1-0.7-0.2-1.4-0.3-2.2c-4.4-30.9,4.9-61.7,6.3-92.4c1.1-23.9-3.5-49.6-19.4-68.4c-7.6-9.1-17.9-15.4-29.4-18.1
	c-14.5-3.3-29.6-0.6-43.6,3.4c-25.9,7.5-52.4,21.3-80.2,15.7c-12.5-2.5-23.3-9.7-29.6-20.8c-6.2-10.9-7.8-23.7-7.9-36.1
	c-0.3-23.8,5.1-48.1-2.8-71.3c-3.5-10.1-9.7-19.3-19.1-24.8c-12.1-7.1-26.3-6.5-39.6-4c-14.1,2.7-27.7,7.5-42,9.4
	c-7.4,1-14.9,1.3-22.3,0.9v2.1c12.7,0.5,25.4-0.8,37.7-3.7c14.4-3.5,29-8.5,44-8.3c13.2,0.2,25.7,5.8,33.2,16.8
	c13.6,20,10.2,46.2,9,68.9c-1.2,23.2,0,50.8,21.1,65.5c20.9,14.5,49.6,8.4,71.9,0.8C202.9,210.3,235.5,196.5,262.2,214.1z"/>
</svg>
