<?xml version="1.0" encoding="utf-8"?>
<!-- Generator: Adobe Illustrator 25.4.1, SVG Export Plug-In . SVG Version: 6.00 Build 0)  -->
<svg version="1.1" id="Layer_1" xmlns="http://www.w3.org/2000/svg" xmlns:xlink="http://www.w3.org/1999/xlink" x="0px" y="0px"
	 viewBox="0 0 15 13.9" style="enable-background:new 0 0 15 13.9;" xml:space="preserve">
<style type="text/css">
	.st0{fill-rule:evenodd;clip-rule:evenodd;fill:#344F43;}
</style>
<path id="ic_bullet_lotus" class="st0" d="M7.7,13.9c-2-0.2-4-1.1-5.4-2.6C0.7,9.6-0.1,7.4,0,5.1c1.1,0,2.2,0.2,3.2,0.6
	C4.1,6.1,5,6.6,5.6,7.4c0.7,0.8,1.2,1.7,1.5,2.7C7.5,11.3,7.7,12.6,7.7,13.9z M8.8,13.6c0-0.8-0.1-1.6-0.2-2.3
	c-0.1-0.7-0.3-1.3-0.5-2c0.6-1.3,1.5-2.3,2.7-3C12,5.5,13.5,5,15,5.1c0,2-0.6,3.9-1.8,5.5C12.1,12.1,10.6,13.1,8.8,13.6z M7.5,8.1
	C7.2,7.5,6.8,7,6.4,6.6c-0.5-0.5-1-0.9-1.6-1.2c0-1.1,0.3-2.1,0.9-3C6.1,1.7,6.8,0.8,7.5,0c0.7,0.8,1.4,1.8,1.8,2.3
	c0.6,0.9,0.9,2,0.9,3.1C9.6,5.7,9.1,6.1,8.7,6.5C8.2,7,7.8,7.5,7.5,8.1z"/>
</svg>
