<?xml version="1.0" encoding="utf-8"?>
<!-- Generator: Adobe Illustrator 25.4.1, SVG Export Plug-In . SVG Version: 6.00 Build 0)  -->
<svg version="1.1" id="bg_quote_shape" xmlns="http://www.w3.org/2000/svg" xmlns:xlink="http://www.w3.org/1999/xlink" x="0px"
	 y="0px" viewBox="0 0 199.8 304.6" style="enable-background:new 0 0 199.8 304.6;" xml:space="preserve">
<style type="text/css">
	.st0{fill-rule:evenodd;clip-rule:evenodd;fill:#9EA797;}
	.st1{fill-rule:evenodd;clip-rule:evenodd;fill:#344F43;}
</style>
<path class="st0" d="M199.5,234.8c-55,23.5-114.1,36.2-173.9,37.5c54.6-25.9,113.6-41,173.9-44.6V234.8z M199.5,221.7
	C139.9,187.4,61.1,150.2,23.1,97.6c57,34.6,125.6,74.8,176.4,118.5V221.7z M199.5,226.6c-69.2-10.3-140-21.7-199.5-55.1
	c62.6,4.2,140.8,28,199.5,51.3V226.6z M199.5,213.7c-27.8-29.8-65.6-60.5-84.6-93.3C93.4,83.2,78.7,41.9,79.6,0
	c48.7,56.7,91.7,108.2,119.9,175.9L199.5,213.7L199.5,213.7z"/>
<path class="st1" d="M34.2,250.7c1.3,3.7,2.7,7.3,4.2,10.9c6,14.5,13.7,28.2,22.9,40.9c0.5,0.7,1,1.4,1.6,2.1h2.1
	c-5.7-7.6-10.9-15.7-15.5-24.1c-3.8-6.9-7.2-14-10.1-21.3c-1.5-3.6-2.8-7.3-4.1-10.9c-1.1-3-1.9-6.1-2.4-9.3
	c-0.7-5.1-0.7-12,4.4-15.2c7.4-4.7,16,2.8,21.5,6.9c7.5,5.5,14.9,11,22.4,16.6c3.6,2.7,7.2,5.4,10.9,8.1c3.1,2.4,6.4,4.3,10,5.7
	c6.2,2.2,13.8,1.3,17.6-4.2c3.7-5.5,2.2-12.8,0.5-18.6c-2.3-8.2-5-16.4-7.5-24.6c-2.6-8.5-5.2-17.1-7.8-25.6
	c-2.6-8.3-5.3-16.6-7.3-25.1c-1.9-8.1-3-16.6-1.4-24.8c2.5-12.5,12.1-25.7,27.3-24.8c16.6,1,27.1,15.3,33.5,28.1
	c3.8,7.6,7.1,15.3,10.6,23.1c3.7,8.2,7.4,16.4,11.1,24.6c6.6,14.6,12.6,29.6,21,43.4c3.8,6.5,8.5,12.6,14,17.9
	c4.8,4.5,11.1,8.5,18,9.2c6.3,0.8,12.4-2.4,15.6-7.9c3.1-5.5,3.4-12,3.2-18.1c-0.6-15.3-3.9-30.3-8.2-45
	c-8.8-29.6-21.9-58.3-25.7-89c-0.8-6.8-1.4-13.7-0.3-20.5c0.9-5.9,3-12.1,7.8-16.4c5.2-4.6,12.5-5.5,19.1-3.5
	c7.1,2.1,12.6,7.1,16.4,12.9c8.7,13.5,9.2,29.8,14.4,44.4c4.7,13.3,14.5,24.1,27.1,30.3c0.9,0.4,1.8,0.8,2.7,1.2v-1.8
	c-7.9-3.4-14.9-8.7-20.2-15.5c-10.1-12.8-11.2-28.9-15.7-43.8c-3.9-12.8-11.5-27-26.9-30c-6.3-1.4-12.9,0.2-18,4.3
	c-4.7,4-7,9.8-8.2,15.5c-1.3,6.5-1.1,13.2-0.4,19.8c0.8,7.6,2.1,15.1,3.9,22.5c3.6,15.1,8.8,29.9,13.9,44.7
	c5.1,14.7,10.1,29.5,13.2,44.7c1.6,7.7,2.7,15.4,3.1,23.3c0.3,6.4,0.3,13.6-3.1,19.4c-1.7,2.9-4.4,5.1-7.6,6.2
	c-3.4,1-7,0.9-10.3-0.3c-7.3-2.3-13-7.5-17.7-13c-10.4-12.2-16.8-26.9-23.3-41.2c-7.4-16.5-14.9-32.9-22.3-49.4
	c-6-13.3-12.2-28.4-25.8-36.7c-6-3.7-13.2-5.8-20.4-4.8c-6.4,1-12.2,4.4-16.2,9.5c-9.9,12-9.5,27.8-6.1,41.9
	c2,8.6,4.8,16.9,7.4,25.3c2.6,8.5,5.2,17.1,7.8,25.6c2.6,8.3,5.3,16.7,7.7,25.1c1.7,6.1,3.2,14.7-3,19.1c-6.8,4.8-15.4,0.6-21.3-3.5
	c-7.5-5.3-14.8-10.9-22.2-16.4c-3.8-2.8-7.6-5.6-11.4-8.4c-3.2-2.6-6.7-5-10.3-7.1c-3.1-1.6-6.7-2.9-10.4-2.2
	c-2.7,0.5-5.2,2-6.8,4.3c-3.3,4.6-2.9,10.8-1.9,16C32.1,244.4,33.1,247.6,34.2,250.7z"/>
</svg>
