<?xml version="1.0" encoding="utf-8"?>
<!-- Generator: Adobe Illustrator 25.4.1, SVG Export Plug-In . SVG Version: 6.00 Build 0)  -->
<svg version="1.1" id="bg_hero_cta" xmlns="http://www.w3.org/2000/svg" xmlns:xlink="http://www.w3.org/1999/xlink" x="0px"
	 y="0px" viewBox="0 0 56.2 171.4" style="enable-background:new 0 0 56.2 171.4;" xml:space="preserve">
<style type="text/css">
	.st0{fill:#98A190;}
	.st1{fill-rule:evenodd;clip-rule:evenodd;fill:#344F43;}
	.st2{fill-rule:evenodd;clip-rule:evenodd;fill:#98A190;}
</style>
<rect x="50.7" y="111.4" class="st0" width="1" height="60"/>
<path id="ic_home_lotus_copy" class="st1" d="M48.9,52.8c-2-0.2-4-1.1-5.4-2.6c-1.6-1.7-2.4-3.9-2.3-6.2c1.1,0,2.2,0.2,3.2,0.6
	c0.9,0.4,1.8,0.9,2.4,1.7c0.7,0.8,1.2,1.7,1.5,2.7C48.7,50.3,48.9,51.6,48.9,52.8z M50,52.6c0-0.8-0.1-1.6-0.2-2.3
	c-0.1-0.7-0.3-1.3-0.5-2c0.6-1.3,1.5-2.3,2.7-3c1.2-0.8,2.7-1.2,4.2-1.2c0,2-0.6,3.9-1.8,5.5C53.3,51,51.8,52.1,50,52.6z M48.7,47.1
	c-0.3-0.6-0.7-1.1-1.1-1.5c-0.5-0.5-1-0.9-1.6-1.2c0-1.1,0.3-2.1,0.9-3c0.4-0.6,1.1-1.4,1.8-2.3c0.7,0.8,1.4,1.8,1.8,2.3
	c0.6,0.9,0.9,2,0.9,3.1c-0.6,0.3-1.1,0.6-1.5,1.1C49.4,46,49,46.5,48.7,47.1z"/>
<path id="BEGIN_YOUR_JOURNEY" class="st2" d="M49.5,91.8c-0.6,0.3-0.9,0.9-0.8,1.5c0.1,1.3,1,1.8,2.4,1.7l2.4-0.2
	c0.1,0,0.1-0.1,0.1-0.1c0,0,0,0,0,0L53.2,88c0-0.1-0.1-0.1-0.1-0.1c0,0,0,0,0,0l-2.5,0.2c-1.3,0.1-2.2,0.8-2.1,2.1
	C48.4,90.9,48.9,91.5,49.5,91.8C49.6,91.8,49.6,91.8,49.5,91.8z M52.4,93.9L51.1,94c-0.5,0.1-1.1-0.2-1.2-0.7c0-0.1,0-0.1,0-0.2
	c0-0.5,0.4-1,0.9-1c0.1,0,0.1,0,0.2,0l1.3-0.1c0,0,0.1,0,0.1,0c0,0,0,0,0,0L52.4,93.9C52.5,93.9,52.5,93.9,52.4,93.9
	C52.4,93.9,52.4,93.9,52.4,93.9z M50.6,89.1L52,89c0,0,0.1,0,0.1,0c0,0,0,0,0,0l0.2,2c0,0,0,0.1-0.1,0.1c0,0,0,0,0,0l-1.4,0.1
	c-0.6,0.1-1.1-0.3-1.2-0.8c-0.1-0.6,0.3-1.1,0.8-1.2C50.5,89.1,50.5,89.1,50.6,89.1L50.6,89.1z M39.1,93.6l-0.1,0.7
	c0,0.1,0,0.2,0.1,0.2c0,0,0,0,0,0l4.4,0.6c0.1,0,0.2,0,0.2-0.1c0,0,0,0,0,0l0.9-6.6c0-0.1,0-0.2-0.1-0.2c0,0,0,0,0,0l-4.4-0.6
	c-0.1,0-0.2,0-0.2,0.1c0,0,0,0,0,0l-0.1,0.7c0,0.1,0,0.2,0.1,0.2c0,0,0,0,0,0l3.3,0.4c0,0,0.1,0,0.1,0.1c0,0,0,0,0,0l-0.2,1.9
	c0,0,0,0.1-0.1,0.1c0,0,0,0,0,0l-2.2-0.3c-0.1,0-0.2,0-0.2,0.1c0,0,0,0,0,0l-0.1,0.7c0,0.1,0,0.2,0.1,0.2c0,0,0,0,0,0l2.2,0.3
	c0,0,0.1,0,0.1,0.1c0,0,0,0,0,0l-0.2,1.8c0,0,0,0.1-0.1,0.1c0,0,0,0,0,0l-3.3-0.4C39.2,93.5,39.2,93.5,39.1,93.6
	C39.1,93.6,39.1,93.6,39.1,93.6z M34.1,85.8c-1.1-0.5-2.5-0.1-3,1.1c-0.1,0.1-0.1,0.2-0.1,0.4l-0.4,1.2c0,0.1,0,0.2,0.1,0.2
	c0,0,0,0,0,0l2.1,0.7c0.1,0,0.2,0,0.2-0.1c0,0,0,0,0,0l0.2-0.6c0-0.1,0-0.2-0.1-0.2c0,0,0,0,0,0L31.9,88c0,0,0,0,0-0.1c0,0,0,0,0,0
	l0.2-0.6c0.2-0.6,0.8-0.9,1.4-0.8c0.1,0,0.1,0,0.2,0.1c0.7,0.2,1.1,0.9,0.9,1.6c0,0,0,0.1,0,0.1l-0.8,2.4c-0.2,0.7-0.9,1.1-1.6,0.9
	c0,0-0.1,0-0.1-0.1c-0.7-0.2-1.1-0.8-0.9-1.5c0,0,0-0.1,0-0.1l0-0.1c0,0,0-0.1-0.1-0.1l-0.8-0.3c-0.1,0-0.2,0-0.2,0.1c0,0,0,0,0,0
	l0,0c-0.4,1.2,0.2,2.5,1.4,2.9c0.1,0,0.1,0,0.2,0.1c1.2,0.5,2.5,0,3.1-1.1c0-0.1,0.1-0.2,0.1-0.3l0.8-2.3c0.5-1.2-0.1-2.5-1.3-3
	C34.2,85.8,34.1,85.8,34.1,85.8z M28.2,83.2l-0.7-0.4c-0.1,0-0.2,0-0.2,0c0,0,0,0,0,0L24,88.7c0,0.1,0,0.2,0,0.2c0,0,0,0,0,0
	l0.7,0.4c0.1,0,0.2,0,0.2,0c0,0,0,0,0,0l3.3-5.8C28.3,83.4,28.3,83.3,28.2,83.2C28.2,83.2,28.2,83.2,28.2,83.2L28.2,83.2z M24,80.6
	l-0.6-0.5c-0.1-0.1-0.1-0.1-0.2,0c0,0,0,0,0,0l-2.9,3.5c0,0-0.1,0-0.1,0l0.7-5.3c0-0.1,0-0.2-0.1-0.2l-0.6-0.5
	c-0.1-0.1-0.2-0.1-0.2,0c0,0,0,0,0,0l-4.2,5.2c-0.1,0.1-0.1,0.2,0,0.2c0,0,0,0,0,0l0.7,0.5c0.1,0.1,0.2,0.1,0.2,0c0,0,0,0,0,0
	l2.8-3.5c0,0,0.1,0,0.1,0l-0.7,5.3c0,0.1,0,0.2,0.1,0.2l0.6,0.5c0.1,0.1,0.2,0.1,0.2,0c0,0,0,0,0,0l4.2-5.2C24,80.8,24,80.7,24,80.6
	C24,80.7,24,80.6,24,80.6L24,80.6z M13.6,69.7L13.1,69c0-0.1-0.1-0.1-0.2-0.1c0,0,0,0,0,0l-2.2,1.4c0,0,0,0-0.1,0l-4.4,0.4
	c-0.1,0-0.1,0-0.1,0.1c0,0,0,0.1,0,0.1l0.5,0.8c0,0.1,0.1,0.1,0.2,0.1l3.1-0.3c0,0,0,0,0.1,0c0,0,0,0,0,0l-1.6,2.6
	c0,0.1,0,0.2,0,0.2l0.5,0.8c0,0.1,0.1,0.1,0.1,0.1c0,0,0.1,0,0.1-0.1l2.2-3.8c0,0,0,0,0-0.1l2.2-1.4C13.6,69.9,13.6,69.8,13.6,69.7
	C13.6,69.7,13.6,69.7,13.6,69.7L13.6,69.7z M9.9,62.2c-0.4-1.3-1.7-2-2.9-1.6c-0.1,0-0.2,0.1-0.3,0.1l-2.1,0.8
	c-1.3,0.6-1.9,2.1-1.3,3.3c0.5,1.2,1.9,1.8,3.2,1.4l2.1-0.8c1.2-0.4,1.9-1.8,1.5-3C10,62.4,9.9,62.3,9.9,62.2L9.9,62.2z M9,62.6
	c0.3,0.7,0,1.4-0.7,1.7c-0.1,0-0.1,0-0.2,0.1l-2.2,0.8c-0.7,0.3-1.5-0.1-1.8-0.8c-0.3-0.7,0.1-1.5,0.8-1.8l2.2-0.8
	c0.7-0.3,1.4,0,1.8,0.6C8.9,62.5,8.9,62.5,9,62.6L9,62.6z M7.7,53.9c-0.1-1.3-1.2-2.2-2.4-2.1c-0.1,0-0.2,0-0.3,0l-4.5,0.7
	c-0.1,0-0.1,0.1-0.1,0.2c0,0,0,0,0,0l0.1,0.8c0,0.1,0.1,0.1,0.2,0.1c0,0,0,0,0,0L5.1,53c0.7-0.1,1.4,0.4,1.5,1.1
	c0.1,0.7-0.4,1.4-1.1,1.5L1,56.3c-0.1,0-0.1,0.1-0.1,0.2c0,0,0,0,0,0L1,57.4c0,0.1,0.1,0.1,0.2,0.1c0,0,0,0,0,0l4.5-0.7
	c1.3-0.2,2.1-1.3,2-2.6C7.7,54.1,7.7,54,7.7,53.9L7.7,53.9z M7.2,43.9l0-0.9c0-0.1,0-0.1-0.1-0.1c0,0-0.1,0-0.1,0l-2.9,1.2
	c0,0-0.1,0-0.1,0c0,0,0,0,0,0c-0.2-0.8-0.9-1.4-1.8-1.4c-1.1-0.1-2,0.7-2.1,1.7c0,0.1,0,0.2,0,0.2L0,47.4c0,0.1,0,0.2,0.1,0.2
	c0,0,0,0,0,0l6.7,0.3c0.1,0,0.2,0,0.2-0.1c0,0,0,0,0,0l0-0.8c0-0.1,0-0.2-0.1-0.2c0,0,0,0,0,0l-2.8-0.1c0,0-0.1,0-0.1-0.1
	c0,0,0,0,0,0l0.1-1.2c0,0,0-0.1,0-0.1l2.9-1.2C7.2,44.1,7.2,44,7.2,43.9L7.2,43.9z M1.1,46.4l0.1-1.5c0-0.6,0.4-1,1-1
	c0,0,0.1,0,0.1,0c0.6,0,1,0.5,1,1c0,0,0,0.1,0,0.1l-0.1,1.5c0,0,0,0.1,0,0.1c0,0,0,0,0,0L1.1,46.4C1.1,46.4,1.1,46.4,1.1,46.4
	C1.1,46.4,1.1,46.4,1.1,46.4L1.1,46.4z M9.7,33.5c0.6-1.1,0.1-2.4-1-3c-0.1,0-0.2-0.1-0.2-0.1l-4.4-1.7c-0.1,0-0.2,0-0.2,0.1
	c0,0,0,0,0,0l-0.3,0.8c0,0.1,0,0.2,0.1,0.2c0,0,0,0,0,0l4.4,1.7c0.7,0.3,1,1,0.7,1.7c-0.3,0.6-1,1-1.6,0.7l-0.4-0.1
	c-0.1,0-0.2,0-0.2,0.1c0,0,0,0,0,0l-0.3,0.8c0,0.1,0,0.2,0.1,0.2c0,0,0,0,0,0L6.8,35c1.1,0.4,2.4-0.1,2.9-1.3
	C9.7,33.6,9.7,33.5,9.7,33.5L9.7,33.5z M13.4,26.1c0.8-1,0.6-2.5-0.5-3.3c-0.1-0.1-0.2-0.1-0.2-0.2l-1.9-1.2
	c-1.2-0.7-2.8-0.3-3.5,0.9C6.6,23.5,6.9,25,8,25.7l1.9,1.2c1.1,0.7,2.5,0.5,3.3-0.6C13.3,26.3,13.3,26.2,13.4,26.1L13.4,26.1z
	 M12.5,25.6c-0.4,0.6-1.2,0.9-1.8,0.5c0,0-0.1-0.1-0.1-0.1l-2-1.2c-0.7-0.4-0.9-1.2-0.6-1.9c0.4-0.7,1.2-0.9,1.9-0.6
	c0.1,0,0.1,0.1,0.1,0.1l2,1.2c0.6,0.3,0.9,1.1,0.5,1.8C12.6,25.5,12.6,25.5,12.5,25.6L12.5,25.6z M18.7,19.3c1-0.8,1.1-2.3,0.3-3.2
	c-0.1-0.1-0.1-0.1-0.2-0.2l-3.3-3.2c-0.1-0.1-0.1-0.1-0.2,0c0,0,0,0,0,0l-0.6,0.6c-0.1,0.1-0.1,0.1,0,0.2c0,0,0,0,0,0l3.3,3.2
	c0.5,0.5,0.5,1.4,0,1.9c-0.5,0.5-1.3,0.5-1.9,0l-3.3-3.2c-0.1-0.1-0.1-0.1-0.2,0c0,0,0,0,0,0L12,16.1c-0.1,0.1-0.1,0.1,0,0.2
	c0,0,0,0,0,0l3.3,3.2c0.9,0.9,2.3,0.9,3.3,0.1C18.5,19.5,18.6,19.4,18.7,19.3L18.7,19.3z M26.4,13l0.7-0.5c0.1,0,0.1-0.1,0.1-0.2
	c0,0,0-0.1-0.1-0.1l-2.7-1.6c0,0,0,0,0-0.1c0,0,0,0,0,0C24.9,10,25,9,24.5,8.3c-0.6-0.9-1.7-1.2-2.7-0.7c-0.1,0-0.1,0.1-0.2,0.1
	l-2.3,1.5c-0.1,0-0.1,0.1-0.1,0.2c0,0,0,0,0,0l3.7,5.6c0,0.1,0.1,0.1,0.2,0.1c0,0,0,0,0,0l0.7-0.5c0.1,0,0.1-0.1,0.1-0.2
	c0,0,0,0,0,0l-1.6-2.3c0,0,0-0.1,0-0.1c0,0,0,0,0,0l1-0.7c0,0,0.1,0,0.1,0l2.7,1.6C26.3,13.1,26.3,13.1,26.4,13L26.4,13z M20.8,9.5
	L22,8.7c0.4-0.3,1.1-0.3,1.4,0.2c0,0,0,0.1,0.1,0.1c0.3,0.4,0.2,1.1-0.2,1.4c0,0-0.1,0-0.1,0.1L22,11.3c0,0-0.1,0-0.1,0c0,0,0,0,0,0
	L20.8,9.5C20.7,9.6,20.8,9.6,20.8,9.5C20.8,9.6,20.8,9.5,20.8,9.5L20.8,9.5z M30.6,10.7l0.8-0.3c0.1,0,0.1-0.1,0.1-0.2c0,0,0,0,0,0
	L29.8,6c0-0.1,0-0.1,0.1,0l4.3,3.3c0.1,0,0.2,0.1,0.2,0L35.1,9c0.1,0,0.1-0.1,0.1-0.2c0,0,0,0,0,0l-2.4-6.2c0-0.1-0.1-0.1-0.2-0.1
	c0,0,0,0,0,0l-0.8,0.3c-0.1,0-0.1,0.1-0.1,0.2c0,0,0,0,0,0l1.6,4.2c0,0.1,0,0.1-0.1,0L29,3.9c-0.1,0-0.2-0.1-0.2,0L28,4.2
	c-0.1,0-0.1,0.1-0.1,0.2c0,0,0,0,0,0l2.4,6.2C30.4,10.7,30.5,10.8,30.6,10.7C30.6,10.7,30.6,10.7,30.6,10.7L30.6,10.7z M43,1.1
	l-0.1-0.7c0-0.1-0.1-0.1-0.2-0.1c0,0,0,0,0,0l-4.4,0.7c-0.1,0-0.1,0.1-0.1,0.2c0,0,0,0,0,0l1,6.6c0,0.1,0.1,0.1,0.2,0.1c0,0,0,0,0,0
	l4.4-0.7c0.1,0,0.1-0.1,0.1-0.2c0,0,0,0,0,0l-0.1-0.7c0-0.1-0.1-0.1-0.2-0.1c0,0,0,0,0,0l-3.3,0.5c0,0-0.1,0-0.1,0c0,0,0,0,0,0
	l-0.3-1.9c0,0,0-0.1,0-0.1c0,0,0,0,0,0l2.2-0.3c0.1,0,0.1-0.1,0.1-0.2c0,0,0,0,0,0l-0.1-0.7c0-0.1-0.1-0.1-0.2-0.1c0,0,0,0,0,0
	l-2.2,0.3c0,0-0.1,0-0.1,0c0,0,0,0,0,0l-0.3-1.8c0,0,0-0.1,0-0.1c0,0,0,0,0,0l3.3-0.5C42.9,1.2,43,1.2,43,1.1
	C42.9,1.1,42.9,1.1,43,1.1L43,1.1z M49.5,7.1l0.8,0c0.1,0,0.2,0,0.2-0.1c0,0,0,0,0,0l0.1-2.6c0,0,0,0,0-0.1L53,0.5
	c0,0,0.1-0.1,0-0.2c0,0-0.1,0-0.1,0L52,0.2c-0.1,0-0.2,0-0.2,0.1L50.2,3c0,0,0,0-0.1,0c0,0,0,0,0,0l-1.2-2.8c0-0.1-0.1-0.1-0.2-0.1
	L47.8,0c-0.1,0-0.1,0-0.1,0.1c0,0,0,0.1,0,0.1l1.8,4c0,0,0,0,0,0.1l-0.1,2.6C49.4,7,49.4,7.1,49.5,7.1C49.5,7.1,49.5,7.1,49.5,7.1
	L49.5,7.1z"/>
</svg>
