<svg xmlns="http://www.w3.org/2000/svg" width="15" height="13.876" viewBox="0 0 15 13.876">
  <defs>
    <style>
      .cls-1 {
        fill: #ea8494;
        fill-rule: evenodd;
      }
    </style>
  </defs>
  <path id="ic_bullet_lotus" class="cls-1" d="M448.206,553.437a8.7,8.7,0,0,1-5.39-2.587,8.438,8.438,0,0,1-2.316-6.169,8.865,8.865,0,0,1,3.225.591,6.455,6.455,0,0,1,2.419,1.669,7.454,7.454,0,0,1,1.528,2.728A12.114,12.114,0,0,1,448.206,553.437Zm1.125-.281a22.615,22.615,0,0,0-.225-2.325,9.262,9.262,0,0,0-.487-1.95,7.049,7.049,0,0,1,2.681-3.047,7.289,7.289,0,0,1,4.2-1.191,9.679,9.679,0,0,1-1.762,5.532A8.373,8.373,0,0,1,449.331,553.156Zm-1.35-5.493a8.381,8.381,0,0,0-1.106-1.538,8.285,8.285,0,0,0-1.556-1.238,5.765,5.765,0,0,1,.89-3.046c0.4-.607,1.085-1.441,1.772-2.278,0.688,0.824,1.434,1.764,1.791,2.3a5.853,5.853,0,0,1,.909,3.122,4.874,4.874,0,0,0-1.518,1.106A8.353,8.353,0,0,0,447.981,547.663Z" transform="translate(-440.5 -539.562)"/>
</svg>
